<?xml version="1.0" encoding="UTF-8" standalone="no"?>
<!DOCTYPE svg PUBLIC "-//W3C//DTD SVG 1.1//EN" "http://www.w3.org/Graphics/SVG/1.1/DTD/svg11.dtd">
<svg width="100%" height="100%" viewBox="0 0 48 48" version="1.1" xmlns="http://www.w3.org/2000/svg" xmlns:xlink="http://www.w3.org/1999/xlink" xml:space="preserve" xmlns:serif="http://www.serif.com/" style="fill-rule:evenodd;clip-rule:evenodd;stroke-linejoin:round;stroke-miterlimit:2;">
    <g transform="matrix(0.966704,0,0,0.903192,1.65224,4.67378)">
        <rect x="-0.024" y="17.421" width="47.964" height="30.502"/>
    </g>
    <g transform="matrix(0.963227,0,0,1.01132,-1.09043,-0.810522)">
        <path d="M6.228,21.213L2.956,25.892L6.224,25.872L9.498,21.188" style="fill:white;"/>
    </g>
    <g transform="matrix(0.963227,0,0,1.01132,5.41135,-0.810522)">
        <path d="M6.228,21.213L2.956,25.892L6.224,25.872L9.498,21.188" style="fill:white;"/>
    </g>
    <g transform="matrix(0.963227,0,0,1.01132,12.0679,-0.810522)">
        <path d="M6.228,21.213L2.956,25.892L6.224,25.872L9.498,21.188" style="fill:white;"/>
    </g>
    <g transform="matrix(0.963227,0,0,1.01132,18.9309,-0.810522)">
        <path d="M6.228,21.213L2.956,25.892L6.224,25.872L9.498,21.188" style="fill:white;"/>
    </g>
    <g transform="matrix(0.963227,0,0,1.01132,25.6735,-0.847263)">
        <path d="M6.228,21.213L2.956,25.892L6.224,25.872L9.498,21.188" style="fill:white;"/>
    </g>
    <g transform="matrix(0.963227,0,0,1.01132,32.1925,-0.810522)">
        <path d="M6.228,21.213L2.956,25.892L6.224,25.872L9.498,21.188" style="fill:white;"/>
    </g>
    <g transform="matrix(0.963227,0,0,1.01132,38.6341,-0.86719)">
        <path d="M6.228,21.213L2.956,25.892L6.224,25.872L9.498,21.188" style="fill:white;"/>
    </g>
    <g transform="matrix(1,0,0,1,46,0)">
        <path d="M6.228,21.213L2.956,25.892L6.224,25.872L9.498,21.188" style="fill:white;"/>
    </g>
    <g transform="matrix(0.968548,-0.311878,0.223369,0.764677,-3.34547,12.0521)">
        <rect x="2.4" y="4.303" width="45.642" height="7.678"/>
    </g>
</svg>
